<svg xmlns="http://www.w3.org/2000/svg" width="192" height="57" viewBox="0 0 192 57" fill="none">
  <path d="M54.468 23.1225C44.1108 23.1225 42.2794 32.9659 42.2794 34.9925L33.9028 34.9925C33.9028 27.9718 41.652 15.1609 54.3935 15.1609C69.9664 15.1609 76.2253 27.6823 76.2253 34.9925H66.9114C66.9114 32.1697 64.8251 23.1225 54.468 23.1225Z" fill="url(#adlite_logo_paint0_linear)"/>
  <path d="M20.971 55.5732V47.2801C27.528 47.2801 33.9776 43.1851 33.9776 35.0788H42.3229C42.3229 46.8041 33.787 55.5732 20.971 55.5732Z" fill="url(#adlite_logo_paint1_linear)"/>
  <path d="M21.0123 15.1609C41.4284 15.1609 42.3226 33.4002 42.3226 34.9925H33.9014C33.9014 31.0117 30.6988 23.0501 21.0123 23.0501C11.3258 23.0501 7.97274 31.0117 7.97274 34.9925C7.97274 38.9733 10.3158 47.2801 20.971 47.2801V55.5732C4.13139 55.5732 0 42.5198 0 34.9925C0 34.2687 0.596092 15.1609 21.0123 15.1609Z" fill="url(#adlite_logo_paint2_linear)"/>
  <path d="M76.4488 34.9925V1.33452L66.9859 2.28775V32.0974C66.9859 47.152 55.9582 47.2244 55.064 47.2244C52.5306 47.2244 42.3226 46.0664 42.3226 34.9925H33.9014C33.9014 41.5789 39.7147 55.3308 55.064 55.3308C70.4134 55.3308 76.4488 43.9674 76.4488 34.9925Z" fill="url(#adlite_logo_paint3_linear)"/>
  <path d="M97.0633 55.2872H85.167V2.28774L97.0633 1.44891V55.2872Z" fill="black"/>
  <path d="M111.8 13.1927C110.021 13.1927 108.47 12.5572 107.148 11.2862C105.877 9.9644 105.242 8.41382 105.242 6.63446C105.242 4.80427 105.877 3.25368 107.148 1.98271C108.47 0.660904 110.021 0 111.8 0C113.63 0 115.181 0.660904 116.452 1.98271C117.774 3.25368 118.435 4.80427 118.435 6.63446C118.435 8.41382 117.774 9.9644 116.452 11.2862C115.181 12.5572 113.63 13.1927 111.8 13.1927ZM117.825 55.2872H105.852V18.302H117.825V55.2872Z" fill="black"/>
  <path d="M148.003 19.1408L150.138 28.4443H139.767V40.7981C139.767 42.5267 140.174 43.9247 140.987 44.9923C141.852 46.06 143.072 46.5938 144.648 46.5938C145.36 46.5938 146.122 46.4921 146.936 46.2887C147.749 46.0854 148.562 45.7803 149.376 45.3736L152.807 53.6858C151.943 54.3975 150.621 55.033 148.842 55.5922C147.063 56.1515 145.41 56.4311 143.885 56.4311C140.886 56.4311 138.166 55.9227 135.726 54.9059C133.336 53.8383 131.43 52.2623 130.006 50.1779C128.583 48.0935 127.871 45.5007 127.871 42.3996V28.4443H122.533V19.1408H127.871V9.76105L139.767 7.93085V19.1408H148.003Z" fill="black"/>
  <path d="M192 40.0356H168.284C168.741 41.9674 169.733 43.5434 171.258 44.7636C172.783 45.9329 175.045 46.5175 178.045 46.5175C180.231 46.5175 182.163 46.2379 183.84 45.6787C185.569 45.0686 187.119 44.3823 188.492 43.6197L191.847 51.9318C190.271 53.1011 188.212 54.0925 185.671 54.9059C183.179 55.7193 180.358 56.126 177.206 56.126C170.444 56.126 165.106 54.4484 161.192 51.093C157.328 47.6868 155.396 42.9334 155.396 36.8327C155.396 32.7656 156.209 29.2832 157.836 26.3853C159.514 23.4367 161.802 21.1744 164.7 19.5984C167.597 17.9715 170.927 17.1581 174.689 17.1581C178.604 17.1581 181.832 18.0478 184.374 19.8271C186.916 21.6065 188.823 23.9705 190.094 26.9191C191.365 29.817 192 32.9944 192 36.4514V40.0356ZM168.131 33.2486H180.638C180.383 31.4692 179.722 29.9949 178.655 28.8256C177.638 27.6055 176.215 26.9954 174.384 26.9954C172.758 26.9954 171.359 27.5801 170.19 28.7493C169.021 29.8678 168.335 31.3675 168.131 33.2486Z" fill="black"/>
  <defs>
    <linearGradient id="adlite_logo_paint0_linear" x1="68.4418" y1="16.3002" x2="40.0356" y2="34.1256" gradientUnits="userSpaceOnUse">
      <stop stop-color="#82CEDE"/>
      <stop offset="1" stop-color="#015591"/>
    </linearGradient>
    <linearGradient id="adlite_logo_paint1_linear" x1="38.9458" y1="37.6435" x2="21.2776" y2="48.2666" gradientUnits="userSpaceOnUse">
      <stop stop-color="#015591"/>
      <stop offset="1" stop-color="#00C5D4"/>
    </linearGradient>
    <linearGradient id="adlite_logo_paint2_linear" x1="23.0681" y1="20.1131" x2="37.3665" y2="35.4601" gradientUnits="userSpaceOnUse">
      <stop stop-color="#00F5E4"/>
      <stop offset="0.765817" stop-color="#00C5D4"/>
    </linearGradient>
    <linearGradient id="adlite_logo_paint3_linear" x1="55.1751" y1="1.33452" x2="55.0966" y2="59.672" gradientUnits="userSpaceOnUse">
      <stop offset="0.324988" stop-color="#00F5E4"/>
      <stop offset="1" stop-color="#0075BB"/>
    </linearGradient>
  </defs>
</svg>
