<svg width="192" height="34" viewBox="0 0 192 34" fill="none" xmlns="http://www.w3.org/2000/svg">
<path d="M189 15.91C188.58 15.75 146.87 0 95.78 0C44.85 0 3 15.75 2.57 15.91L0 16.89L2.57 17.89C2.99 18.05 45.57 33.79 95.78 33.79C145.68 33.79 187.24 18.54 188.99 17.89L191.56 16.89L189 15.91ZM184.78 17.13C156.047 26.5628 126.021 31.4681 95.78 31.67C65.5388 31.4681 35.5131 26.5628 6.78 17.13L6.07 16.89L6.78 16.65C35.5118 7.21053 65.538 2.30174 95.78 2.1C126.022 2.30288 156.048 7.21163 184.78 16.65L185.48 16.89L184.78 17.13Z" fill="white"/>
</svg>
